<mxfile host="app.diagrams.net" modified="2021-10-30T05:14:41.220Z" agent="5.0 (Macintosh; Intel Mac OS X 10_15_7) AppleWebKit/537.36 (KHTML, like Gecko) Chrome/86.0.4240.193 Safari/537.36" etag="VctG6QUu4RLO2R3bGGcU" version="15.6.2" type="github">
  <diagram id="EYTU-El9vWmnvZVTXaOa" name="Page-1">
    <mxGraphModel dx="946" dy="536" grid="1" gridSize="10" guides="1" tooltips="1" connect="1" arrows="1" fold="1" page="1" pageScale="1" pageWidth="827" pageHeight="1169" math="0" shadow="0">
      <root>
        <mxCell id="0" />
        <mxCell id="1" parent="0" />
        <mxCell id="oh-p4PBXN1llgYAJkdgR-1" value="账户系统" style="shape=umlLifeline;perimeter=lifelinePerimeter;whiteSpace=wrap;html=1;container=1;collapsible=0;recursiveResize=0;outlineConnect=0;" vertex="1" parent="1">
          <mxGeometry x="90" y="90" width="100" height="300" as="geometry" />
        </mxCell>
        <mxCell id="oh-p4PBXN1llgYAJkdgR-2" value="充值系统" style="shape=umlLifeline;perimeter=lifelinePerimeter;whiteSpace=wrap;html=1;container=1;collapsible=0;recursiveResize=0;outlineConnect=0;" vertex="1" parent="1">
          <mxGeometry x="314" y="90" width="100" height="300" as="geometry" />
        </mxCell>
      </root>
    </mxGraphModel>
  </diagram>
</mxfile>
